<?xml version="1.0"?>
<svg fill="none" height="25" viewBox="0 0 449 25" width="449" xmlns="http://www.w3.org/2000/svg">
<path clip-rule="evenodd" d="M278.18 12.4421H448.502V11.4421H278.18V12.4421Z" fill="#A789CD" fill-rule="evenodd"/>
<path clip-rule="evenodd" d="M187.5 8.44123C187.5 8.998 187.951 9.44214 188.501 9.44214C189.056 9.44214 189.5 8.998 189.5 8.44123C189.5 7.89082 189.056 7.44214 188.501 7.44214C187.951 7.44214 187.5 7.89082 187.5 8.44123Z" fill="#A789CD" fill-rule="evenodd"/>
<path clip-rule="evenodd" d="M257.5 17.9408C257.5 18.7759 258.178 19.4421 259.002 19.4421C259.833 19.4421 260.5 18.7759 260.5 17.9408C260.5 17.1152 259.833 16.4421 259.002 16.4421C258.178 16.4421 257.5 17.1152 257.5 17.9408Z" fill="#A789CD" fill-rule="evenodd"/>
<path clip-rule="evenodd" d="M239.5 6.9427C239.5 7.77723 239.951 8.44214 240.502 8.44214C241.056 8.44214 241.5 7.77723 241.5 6.9427C241.5 6.11609 241.056 5.44214 240.502 5.44214C239.951 5.44214 239.5 6.11609 239.5 6.9427Z" fill="#A789CD" fill-rule="evenodd"/>
<path clip-rule="evenodd" d="M208.5 18.4418C208.5 18.9989 209.178 19.4421 210.003 19.4421C210.833 19.4421 211.5 18.9989 211.5 18.4418C211.5 17.8914 210.833 17.4421 210.003 17.4421C209.178 17.4421 208.5 17.8914 208.5 18.4418Z" fill="#A789CD" fill-rule="evenodd"/>
<path clip-rule="evenodd" d="M247.06 9.73802L245.904 13.956L241.823 15.0056C241.642 15.0308 241.5 15.1831 241.5 15.3461C241.5 15.5246 241.642 15.6662 241.823 15.6963L245.904 16.7197L247.06 21.1531C247.093 21.3257 247.262 21.4421 247.445 21.4421C247.644 21.4421 247.804 21.3257 247.842 21.1531L249.027 16.7197L253.178 15.6963C253.363 15.6662 253.5 15.5246 253.5 15.3461C253.5 15.1831 253.363 15.0308 253.178 15.0056L249.027 13.956L247.842 9.73802C247.804 9.57116 247.644 9.44214 247.445 9.44214C247.262 9.44214 247.093 9.57116 247.06 9.73802Z" fill="#A789CD" fill-rule="evenodd"/>
<path clip-rule="evenodd" d="M224.416 0.442139C224.14 0.442139 223.888 0.646691 223.837 0.912776L222.104 10.0744L215.984 11.7466C215.712 11.7873 215.5 12.0285 215.5 12.2887C215.5 12.5756 215.712 12.8001 215.984 12.8467L222.104 14.4773L223.837 23.9823C223.888 24.2584 224.14 24.4421 224.416 24.4421C224.714 24.4421 224.957 24.2584 225.011 23.9823L226.79 14.4773L233.016 12.8467C233.293 12.8001 233.5 12.5756 233.5 12.2887C233.5 12.0285 233.293 11.7873 233.016 11.7466L226.79 10.0744L225.011 0.912776C224.957 0.646691 224.714 0.442139 224.416 0.442139Z" fill="#A789CD" fill-rule="evenodd"/>
<path clip-rule="evenodd" d="M200.132 5.73804L199.17 9.95633L195.769 11.006C195.618 11.0313 195.5 11.1826 195.5 11.3466C195.5 11.5261 195.618 11.6667 195.769 11.6958L199.17 12.7203L200.132 17.153C200.16 17.3267 200.3 17.4421 200.454 17.4421C200.619 17.4421 200.754 17.3267 200.784 17.153L201.772 12.7203L205.23 11.6958C205.385 11.6667 205.5 11.5261 205.5 11.3466C205.5 11.1826 205.385 11.0313 205.23 11.006L201.772 9.95633L200.784 5.73804C200.754 5.57117 200.619 5.44214 200.454 5.44214C200.3 5.44214 200.16 5.57117 200.132 5.73804Z" fill="#A789CD" fill-rule="evenodd"/>
<path clip-rule="evenodd" d="M0.5 12.4421H170.823V11.4421H0.5V12.4421Z" fill="#A789CD" fill-rule="evenodd"/>
</svg>